<?xml version="1.0" encoding="UTF-8"?>
<svg width="48px" height="48px" viewBox="0 0 48 48" version="1.1" xmlns="http://www.w3.org/2000/svg" xmlns:xlink="http://www.w3.org/1999/xlink">
    <!-- Generator: Sketch 43.2 (39069) - http://www.bohemiancoding.com/sketch -->
    <title>Artboard</title>
    <desc>Created with Sketch.</desc>
    <defs></defs>
    <g id="Page-1" stroke="none" stroke-width="1" fill="none" fill-rule="evenodd">
        <g id="Artboard">
            <path d="M47.04,24.5454545 C47.04,22.8436364 46.8872727,21.2072727 46.6036364,19.6363636 L24,19.6363636 L24,28.92 L36.9163636,28.92 C36.36,31.92 34.6690909,34.4618182 32.1272727,36.1636364 L32.1272727,42.1854545 L39.8836364,42.1854545 C44.4218182,38.0072727 47.04,31.8545455 47.04,24.5454545 L47.04,24.5454545 Z" id="Shape" fill="#4285F4"></path>
            <path d="M24,48 C30.48,48 35.9127273,45.8509091 39.8836364,42.1854545 L32.1272727,36.1636364 C29.9781818,37.6036364 27.2290909,38.4545455 24,38.4545455 C17.7490909,38.4545455 12.4581818,34.2327273 10.5709091,28.56 L2.55272727,28.56 L2.55272727,34.7781818 C6.50181818,42.6218182 14.6181818,48 24,48 L24,48 Z" id="Shape" fill="#34A853"></path>
            <path d="M10.5709091,28.56 C10.0909091,27.12 9.81818182,25.5818182 9.81818182,24 C9.81818182,22.4181818 10.0909091,20.88 10.5709091,19.44 L10.5709091,13.2218182 L2.55272727,13.2218182 C0.927272727,16.4618182 0,20.1272727 0,24 C0,27.8727273 0.927272727,31.5381818 2.55272727,34.7781818 L10.5709091,28.56 L10.5709091,28.56 Z" id="Shape" fill="#FBBC05"></path>
            <path d="M24,9.54545455 C27.5236364,9.54545455 30.6872727,10.7563636 33.1745455,13.1345455 L40.0581818,6.25090909 C35.9018182,2.37818182 30.4690909,0 24,0 C14.6181818,0 6.50181818,5.37818182 2.55272727,13.2218182 L10.5709091,19.44 C12.4581818,13.7672727 17.7490909,9.54545455 24,9.54545455 L24,9.54545455 Z" id="Shape" fill="#EA4335"></path>
            <polygon id="Shape" points="0 0 48 0 48 48 0 48"></polygon>
        </g>
    </g>
</svg>